<svg xmlns="http://www.w3.org/2000/svg" xmlns:xlink="http://www.w3.org/1999/xlink" id="Layer_1" x="0" y="0" version="1.1" viewBox="0 0 400 400" xml:space="preserve" style="enable-background:new 0 0 400 400"><style type="text/css">.st0{fill:#0a4e9b}.st1{fill-rule:evenodd;clip-rule:evenodd}.st1,.st2{fill:#fff}</style><rect width="400" height="400" class="st0"/><g><g><path d="M62.6,280.1c4,3.6,11.5,7,16.3,9.8l99.5,57.5c4.9,2.7,11.4,7.4,16.6,9.2v-29L88.2,265.3V141.8 c-7.5-1.9-19.2-12.6-25.6-13.4V280.1z" class="st1"/><path d="M337.5,280.1l-0.2-152c-6.8,2.3-18.1,11.9-25.3,13.6l-0.2,123.6c-3.8,3.8-22.7,13.6-28.2,16.8l-56.5,32.7 c-23.5,14-22.1,9.1-22.1,22.7l0.2,19.6L337.5,280.1z" class="st1"/><path d="M92.9,133.4c8.6-3.4,19.7-11.1,27.6-15.6c8.7-5,17.5-10.3,26.2-15.2c9.7-5.3,17.3-10.1,26.9-15.6 c7.7-4.4,18.8-11.8,26.4-14.9l66,37.9c10.9,6.4,21.9,12.4,32.9,19c9.6,5.7,7.5,4.7,16.8-0.6c4.9-2.8,12.5-6.3,15.8-9.7 C327.9,115.4,200.8,43,199.9,43S72,115.1,68,119.2L92.9,133.4z" class="st1"/></g><path d="M200,86.5l-98.3,56.7v113.5l98.3,56.7l98.3-56.7V143.3L200,86.5z M234.4,220.3c0,8.5-2.1,16.4-6.3,23.6 c-4.3,7.3-10.1,13-17.4,17.1c-7.4,4.3-15.3,6.3-24.1,6.3c-8.6,0-16.6-2.1-24.1-6.3c-7.4-4.3-13.1-10-17.4-17.1 c-4.3-7.3-6.3-15.1-6.3-23.6h31.5c0,4.3,1.6,7.9,4.7,10.9c3.2,3,7,4.5,11.5,4.5s8.3-1.5,11.5-4.5c3.2-3,4.7-6.7,4.7-10.9v-47.8 h-29.7v-31.5h61.1V220.3z" class="st2"/></g></svg>